<mxfile host="Electron" modified="2024-02-15T09:09:25.299Z" agent="Mozilla/5.0 (Windows NT 10.0; Win64; x64) AppleWebKit/537.36 (KHTML, like Gecko) draw.io/23.0.2 Chrome/120.0.6099.109 Electron/28.1.0 Safari/537.36" etag="nq4Djdq0QbOLsD_YMsN9" version="23.0.2" type="device">
  <diagram name="Seite-1" id="SS-HQOLnVxQU8ypBvxkJ">
    <mxGraphModel dx="1925" dy="988" grid="1" gridSize="10" guides="1" tooltips="1" connect="1" arrows="1" fold="1" page="1" pageScale="1" pageWidth="827" pageHeight="1169" math="0" shadow="0">
      <root>
        <mxCell id="0" />
        <mxCell id="1" parent="0" />
        <mxCell id="u75JDr9KHzSz3JVAQ8TS-34" value="Frontend" style="whiteSpace=wrap;html=1;imageAspect=0;connectable=0;labelPosition=center;verticalLabelPosition=top;align=center;verticalAlign=bottom;fontStyle=1" vertex="1" parent="1">
          <mxGeometry x="-30" y="250" width="170" height="570" as="geometry" />
        </mxCell>
        <mxCell id="u75JDr9KHzSz3JVAQ8TS-13" value="Backend" style="rounded=0;whiteSpace=wrap;html=1;fillColor=#d5e8d4;strokeColor=#82b366;connectable=0;labelPosition=center;verticalLabelPosition=top;align=center;verticalAlign=bottom;fontStyle=1" vertex="1" parent="1">
          <mxGeometry x="140" y="250" width="500" height="570" as="geometry" />
        </mxCell>
        <mxCell id="u75JDr9KHzSz3JVAQ8TS-16" value="Compute node" style="rounded=0;whiteSpace=wrap;html=1;labelPosition=center;verticalLabelPosition=bottom;align=center;verticalAlign=top;" vertex="1" parent="1">
          <mxGeometry x="530" y="380" width="90" height="250" as="geometry" />
        </mxCell>
        <mxCell id="u75JDr9KHzSz3JVAQ8TS-1" value="GSS" style="image;sketch=0;aspect=fixed;html=1;points=[];align=center;fontSize=12;image=img/lib/mscae/Load_Balancer_feature.svg;labelPosition=center;verticalLabelPosition=top;verticalAlign=bottom;" vertex="1" parent="1">
          <mxGeometry x="370" y="280" width="50" height="50" as="geometry" />
        </mxCell>
        <mxCell id="u75JDr9KHzSz3JVAQ8TS-2" value="GDS" style="image;sketch=0;aspect=fixed;html=1;points=[];align=center;fontSize=12;image=img/lib/mscae/Load_Balancer_feature.svg;labelPosition=center;verticalLabelPosition=top;verticalAlign=bottom;" vertex="1" parent="1">
          <mxGeometry x="550" y="280" width="49" height="50" as="geometry" />
        </mxCell>
        <mxCell id="u75JDr9KHzSz3JVAQ8TS-25" style="edgeStyle=orthogonalEdgeStyle;rounded=0;orthogonalLoop=1;jettySize=auto;html=1;entryX=0;entryY=0.5;entryDx=0;entryDy=0;" edge="1" parent="1" source="u75JDr9KHzSz3JVAQ8TS-4" target="u75JDr9KHzSz3JVAQ8TS-11">
          <mxGeometry relative="1" as="geometry" />
        </mxCell>
        <mxCell id="u75JDr9KHzSz3JVAQ8TS-4" value="Rich client" style="sketch=0;aspect=fixed;pointerEvents=1;shadow=0;dashed=0;html=1;strokeColor=none;labelPosition=left;verticalLabelPosition=middle;verticalAlign=middle;align=right;fillColor=#00188D;shape=mxgraph.azure.virtual_machine_feature" vertex="1" parent="1">
          <mxGeometry x="27" y="552.5" width="50" height="49" as="geometry" />
        </mxCell>
        <mxCell id="u75JDr9KHzSz3JVAQ8TS-5" value="MongoDB" style="image;sketch=0;aspect=fixed;html=1;points=[];align=center;fontSize=12;image=img/lib/mscae/Database_General.svg;" vertex="1" parent="1">
          <mxGeometry x="230" y="726.5" width="38" height="50" as="geometry" />
        </mxCell>
        <mxCell id="u75JDr9KHzSz3JVAQ8TS-6" value="Admin Panel (web)" style="image;sketch=0;aspect=fixed;html=1;points=[];align=center;fontSize=12;image=img/lib/mscae/User_Privacy.svg;" vertex="1" parent="1">
          <mxGeometry x="34" y="277" width="36" height="52" as="geometry" />
        </mxCell>
        <mxCell id="u75JDr9KHzSz3JVAQ8TS-7" value="Authentication Service" style="image;sketch=0;aspect=fixed;html=1;points=[];align=center;fontSize=12;image=img/lib/mscae/Managed_Identities.svg;labelPosition=center;verticalLabelPosition=top;verticalAlign=bottom;" vertex="1" parent="1">
          <mxGeometry x="200" y="280" width="38" height="50" as="geometry" />
        </mxCell>
        <mxCell id="u75JDr9KHzSz3JVAQ8TS-29" style="edgeStyle=orthogonalEdgeStyle;rounded=0;orthogonalLoop=1;jettySize=auto;html=1;entryX=0;entryY=0.5;entryDx=0;entryDy=0;startArrow=classic;startFill=1;" edge="1" parent="1" source="u75JDr9KHzSz3JVAQ8TS-8" target="u75JDr9KHzSz3JVAQ8TS-16">
          <mxGeometry relative="1" as="geometry">
            <Array as="points">
              <mxPoint x="395" y="505" />
            </Array>
          </mxGeometry>
        </mxCell>
        <mxCell id="u75JDr9KHzSz3JVAQ8TS-8" value="LSS" style="image;sketch=0;aspect=fixed;html=1;points=[];align=right;fontSize=12;image=img/lib/mscae/Controllers.svg;labelPosition=left;verticalLabelPosition=bottom;verticalAlign=top;" vertex="1" parent="1">
          <mxGeometry x="370" y="400" width="50" height="44" as="geometry" />
        </mxCell>
        <mxCell id="u75JDr9KHzSz3JVAQ8TS-30" value="" style="edgeStyle=orthogonalEdgeStyle;rounded=0;orthogonalLoop=1;jettySize=auto;html=1;exitX=0.48;exitY=0.045;exitDx=0;exitDy=0;exitPerimeter=0;startArrow=classic;startFill=1;" edge="1" parent="1" source="u75JDr9KHzSz3JVAQ8TS-9" target="u75JDr9KHzSz3JVAQ8TS-2">
          <mxGeometry relative="1" as="geometry">
            <mxPoint x="660" y="350" as="sourcePoint" />
          </mxGeometry>
        </mxCell>
        <mxCell id="u75JDr9KHzSz3JVAQ8TS-9" value="LDS" style="image;sketch=0;aspect=fixed;html=1;points=[];align=center;fontSize=12;image=img/lib/mscae/Controllers.svg;" vertex="1" parent="1">
          <mxGeometry x="550" y="400" width="50" height="44" as="geometry" />
        </mxCell>
        <mxCell id="u75JDr9KHzSz3JVAQ8TS-10" value="Services" style="image;sketch=0;aspect=fixed;html=1;points=[];align=center;fontSize=12;image=img/lib/mscae/Grid3x3.svg;imageBackground=default;" vertex="1" parent="1">
          <mxGeometry x="550" y="490" width="50" height="50" as="geometry" />
        </mxCell>
        <mxCell id="u75JDr9KHzSz3JVAQ8TS-11" value="Relay Service" style="rounded=0;whiteSpace=wrap;html=1;fillColor=#b8d432;verticalAlign=top;labelPosition=center;verticalLabelPosition=bottom;align=center;" vertex="1" parent="1">
          <mxGeometry x="550" y="570" width="50" height="15" as="geometry" />
        </mxCell>
        <mxCell id="u75JDr9KHzSz3JVAQ8TS-12" value="Logging Service" style="image;sketch=0;aspect=fixed;html=1;points=[];align=center;fontSize=12;image=img/lib/mscae/eBooks.svg;" vertex="1" parent="1">
          <mxGeometry x="490" y="726.5" width="50" height="41" as="geometry" />
        </mxCell>
        <mxCell id="u75JDr9KHzSz3JVAQ8TS-15" style="edgeStyle=orthogonalEdgeStyle;rounded=0;orthogonalLoop=1;jettySize=auto;html=1;entryX=0.079;entryY=0.44;entryDx=0;entryDy=0;entryPerimeter=0;exitX=0.944;exitY=0.48;exitDx=0;exitDy=0;exitPerimeter=0;" edge="1" parent="1" source="u75JDr9KHzSz3JVAQ8TS-6" target="u75JDr9KHzSz3JVAQ8TS-7">
          <mxGeometry relative="1" as="geometry" />
        </mxCell>
        <mxCell id="u75JDr9KHzSz3JVAQ8TS-21" style="edgeStyle=orthogonalEdgeStyle;rounded=0;orthogonalLoop=1;jettySize=auto;html=1;entryX=-0.02;entryY=0.56;entryDx=0;entryDy=0;entryPerimeter=0;" edge="1" parent="1" source="u75JDr9KHzSz3JVAQ8TS-8" target="u75JDr9KHzSz3JVAQ8TS-2">
          <mxGeometry relative="1" as="geometry" />
        </mxCell>
        <mxCell id="u75JDr9KHzSz3JVAQ8TS-22" style="edgeStyle=orthogonalEdgeStyle;rounded=0;orthogonalLoop=1;jettySize=auto;html=1;entryX=0.5;entryY=-0.045;entryDx=0;entryDy=0;entryPerimeter=0;startArrow=classic;startFill=1;" edge="1" parent="1" source="u75JDr9KHzSz3JVAQ8TS-1" target="u75JDr9KHzSz3JVAQ8TS-8">
          <mxGeometry relative="1" as="geometry" />
        </mxCell>
        <mxCell id="u75JDr9KHzSz3JVAQ8TS-23" style="edgeStyle=orthogonalEdgeStyle;rounded=0;orthogonalLoop=1;jettySize=auto;html=1;entryX=0;entryY=0.8;entryDx=0;entryDy=0;entryPerimeter=0;" edge="1" parent="1" source="u75JDr9KHzSz3JVAQ8TS-4" target="u75JDr9KHzSz3JVAQ8TS-5">
          <mxGeometry relative="1" as="geometry">
            <Array as="points">
              <mxPoint x="52" y="767" />
            </Array>
          </mxGeometry>
        </mxCell>
        <mxCell id="u75JDr9KHzSz3JVAQ8TS-24" style="edgeStyle=orthogonalEdgeStyle;rounded=0;orthogonalLoop=1;jettySize=auto;html=1;entryX=0.421;entryY=0.98;entryDx=0;entryDy=0;entryPerimeter=0;" edge="1" parent="1" source="u75JDr9KHzSz3JVAQ8TS-4" target="u75JDr9KHzSz3JVAQ8TS-7">
          <mxGeometry relative="1" as="geometry">
            <Array as="points">
              <mxPoint x="52" y="400" />
              <mxPoint x="216" y="400" />
            </Array>
          </mxGeometry>
        </mxCell>
        <mxCell id="u75JDr9KHzSz3JVAQ8TS-26" value="" style="endArrow=none;dashed=1;html=1;dashPattern=1 3;strokeWidth=2;rounded=0;" edge="1" parent="1">
          <mxGeometry width="50" height="50" relative="1" as="geometry">
            <mxPoint x="140" y="690" as="sourcePoint" />
            <mxPoint x="640" y="690" as="targetPoint" />
          </mxGeometry>
        </mxCell>
        <mxCell id="u75JDr9KHzSz3JVAQ8TS-27" style="edgeStyle=orthogonalEdgeStyle;rounded=0;orthogonalLoop=1;jettySize=auto;html=1;entryX=-0.02;entryY=0.54;entryDx=0;entryDy=0;entryPerimeter=0;" edge="1" parent="1" source="u75JDr9KHzSz3JVAQ8TS-4" target="u75JDr9KHzSz3JVAQ8TS-1">
          <mxGeometry relative="1" as="geometry">
            <Array as="points">
              <mxPoint x="280" y="577" />
              <mxPoint x="280" y="307" />
            </Array>
          </mxGeometry>
        </mxCell>
        <mxCell id="u75JDr9KHzSz3JVAQ8TS-28" style="edgeStyle=orthogonalEdgeStyle;rounded=0;orthogonalLoop=1;jettySize=auto;html=1;entryX=-0.02;entryY=0.568;entryDx=0;entryDy=0;entryPerimeter=0;" edge="1" parent="1" source="u75JDr9KHzSz3JVAQ8TS-4" target="u75JDr9KHzSz3JVAQ8TS-8">
          <mxGeometry relative="1" as="geometry">
            <Array as="points">
              <mxPoint x="280" y="577" />
              <mxPoint x="280" y="425" />
            </Array>
          </mxGeometry>
        </mxCell>
        <mxCell id="u75JDr9KHzSz3JVAQ8TS-31" value="" style="endArrow=none;dashed=1;html=1;dashPattern=1 3;strokeWidth=2;rounded=0;entryX=1.022;entryY=0.368;entryDx=0;entryDy=0;entryPerimeter=0;exitX=0;exitY=0.372;exitDx=0;exitDy=0;exitPerimeter=0;" edge="1" parent="1" source="u75JDr9KHzSz3JVAQ8TS-16" target="u75JDr9KHzSz3JVAQ8TS-16">
          <mxGeometry width="50" height="50" relative="1" as="geometry">
            <mxPoint x="390" y="540" as="sourcePoint" />
            <mxPoint x="440" y="490" as="targetPoint" />
          </mxGeometry>
        </mxCell>
        <mxCell id="u75JDr9KHzSz3JVAQ8TS-32" value="All services can communicate to DB and logging services" style="text;html=1;strokeColor=none;fillColor=none;align=center;verticalAlign=middle;whiteSpace=wrap;rounded=0;" vertex="1" parent="1">
          <mxGeometry x="200" y="690" width="360" height="30" as="geometry" />
        </mxCell>
      </root>
    </mxGraphModel>
  </diagram>
</mxfile>
